# xmcd
#
# Track frame offsets:
#  150
#  11977
#  33416
#  52110
#  72644
#  86630
#  105465
#  127435
#  139358
#  161453
#  183682
#
# Disc length: 2678 seconds
#
# Revision: 0
# Processed by: cddbd v1.5.1PL2 Copyright (c) Steve Scherf et al.
# Submitted via: Collectorz.com_Music_Collector 6.10
#
DISCID=ab0a740b
DTITLE=Lunasa - The Kinnitty Sessions
DYEAR=1900
DGENRE=
TTITLE0=Stolen Purse
TTITLE1=Ballyogan
TTITLE2=Punch
TTITLE3=The Dimmers 
TTITLE4=Island Paddy
TTITLE5=Sean In The Fog
TTITLE6=Bulgarian Rock
TTITLE7=The Wounded Hussar
TTITLE8=The Walrus
TTITLE9=Maids In The Kitchen 
TTITLE10=Tie The Bonnet
EXTD=
EXTT0=
EXTT1=
EXTT2=
EXTT3=
EXTT4=
EXTT5=
EXTT6=
EXTT7=
EXTT8=
EXTT9=
EXTT10=
PLAYORDER=
